<?xml version="1.0" standalone="no"?>
<!DOCTYPE svg PUBLIC "-//W3C//DTD SVG 20010904//EN"
 "http://www.w3.org/TR/2001/REC-SVG-20010904/DTD/svg10.dtd">
<svg version="1.0" xmlns="http://www.w3.org/2000/svg"
 width="100.000000pt" height="100.000000pt" viewBox="0 0 100.000000 100.000000"
 preserveAspectRatio="xMidYMid meet">
<metadata>
Created by potrace 1.14, written by Peter Selinger 2001-2017
</metadata>
<g transform="translate(0.000000,100.000000) scale(0.100000,-0.100000)"
fill="#000000" stroke="none">
<path d="M148 990 c-51 -15 -94 -49 -118 -92 l-25 -43 0 -355 0 -355 27 -45
c16 -28 43 -55 70 -70 l43 -25 355 0 355 0 43 25 c27 15 54 42 70 70 l27 45 0
355 0 355 -27 45 c-16 28 -43 55 -70 70 l-43 25 -340 2 c-187 1 -352 -2 -367
-7z m642 -243 c0 -7 -70 -87 -156 -177 -120 -127 -163 -181 -191 -235 -63
-125 -73 -121 -73 28 0 80 3 100 18 112 21 17 396 285 399 285 2 0 3 -6 3 -13z
m-155 -46 c-6 -4 -72 -52 -148 -106 -77 -54 -141 -104 -144 -112 -7 -18 -22
-17 -88 9 -37 14 -55 26 -53 36 2 9 83 46 218 98 232 89 229 88 215 75z m79
-250 c-40 -131 -62 -191 -72 -191 -17 0 -142 90 -142 103 0 11 262 288 267
283 3 -2 -22 -90 -53 -195z"/>
</g>
</svg>
